<?xml version="1.0" encoding="UTF-8" standalone="no"?>
<!-- Created with Inkscape (http://www.inkscape.org/) -->

<svg
   xmlns:dc="http://purl.org/dc/elements/1.1/"
   xmlns:cc="http://creativecommons.org/ns#"
   xmlns:rdf="http://www.w3.org/1999/02/22-rdf-syntax-ns#"
   xmlns:svg="http://www.w3.org/2000/svg"
   xmlns="http://www.w3.org/2000/svg"
   xmlns:sodipodi="http://sodipodi.sourceforge.net/DTD/sodipodi-0.dtd"
   xmlns:inkscape="http://www.inkscape.org/namespaces/inkscape"
   width="128"
   height="128"
   viewBox="0 0 128 128"
   id="svg2"
   version="1.1"
   inkscape:version="0.91 r13725"
   sodipodi:docname="aris.svg">
  <defs
     id="defs4" />
  <sodipodi:namedview
     id="base"
     pagecolor="#ffffff"
     bordercolor="#666666"
     borderopacity="1.0"
     inkscape:pageopacity="0.0"
     inkscape:pageshadow="2"
     inkscape:zoom="1.0018479"
     inkscape:cx="-406.19365"
     inkscape:cy="307.20668"
     inkscape:document-units="px"
     inkscape:current-layer="layer1"
     showgrid="false"
     units="px"
     inkscape:window-width="1920"
     inkscape:window-height="1017"
     inkscape:window-x="-8"
     inkscape:window-y="-8"
     inkscape:window-maximized="1" />
  <metadata
     id="metadata7">
    <rdf:RDF>
      <cc:Work
         rdf:about="">
        <dc:format>image/svg+xml</dc:format>
        <dc:type
           rdf:resource="http://purl.org/dc/dcmitype/StillImage" />
        <dc:title></dc:title>
      </cc:Work>
    </rdf:RDF>
  </metadata>
  <g
     inkscape:label="Capa 1"
     inkscape:groupmode="layer"
     id="layer1"
     transform="translate(0,-924.36216)">
    <g
       id="g4170"
       transform="matrix(1.6690251,0,0,2.204531,-73.759592,918.33938)">
      <path
         id="path4140"
         d="M 62.243779,2.1042023 86.34,16.12 c -7.351486,8.985966 0,0 -7.351486,8.985966 l -11.60932,-6.902017 -7.176222,8.697984 C 55.502972,24.521933 60.04,26.63 46.19,19.05 Z"
         inkscape:connector-curvature="0"
         style="fill:#626772"
         sodipodi:nodetypes="ccccccc" />
      <path
         id="path4142"
         d="M 93.006625,8.204118 119.07,22.12 110.9696,31.812017 90.528237,20.030253 79.008917,33.134034 74.45,30.14 86.34,16.12 c 6.666625,-7.915882 0.873596,-0.992392 6.666625,-7.915882 z"
         inkscape:connector-curvature="0"
         style="fill:#cbced6"
         sodipodi:nodetypes="cccccccc" />
      <path
         id="path4144"
         d="m 67.216221,17.932017 11.674182,7.040084 C 74.45,30.14 86.444687,16.546984 74.45,30.14 c 4.558917,2.926051 4.792001,3.002523 4.803375,3.062017 l -7.657557,8.371005 12.530529,6.997062 c -6.773375,7.017899 0,0 -6.936347,6.949916 L 49.83,39.87 Z"
         inkscape:connector-curvature="0"
         style="fill:#868a91"
         sodipodi:nodetypes="ccccccccc" />
      <path
         id="path4150"
         d="M 90.528237,20.030253 121.20257,37.786051 120.68444,38.608989 90.71,21.1 72.379194,42.117815 71.51219,41.563944 c 19.260505,-21.94159 0,0 19.016047,-21.533691 z"
         inkscape:connector-curvature="0"
         style="fill:#508d4c"
         sodipodi:nodetypes="ccccccc" />
      <path
         id="path4156"
         d="M 90.816348,21.772354 118.2204,37.998152 103.02,55.892101 75.499597,39.512185 Z"
         inkscape:connector-curvature="0"
         style="fill:#61bc57"
         sodipodi:nodetypes="ccccc" />
      <path
         id="path4158"
         d="m 117.97594,37.862186 c 2.46446,1.312016 0.0815,0.06798 2.46446,1.312016 l -17.2204,19.7 -30.03932,-16.764118 2.237431,-2.733865 27.601889,16.04 z"
         inkscape:connector-curvature="0"
         style="fill:#508d4c"
         sodipodi:nodetypes="ccccccc" />
      <path
         id="path4160"
         d="m 17.65,46.26 c 1.63,-0.22 3.27,-0.12 4.87,0.27 -0.04,1.02 -0.07,2.03 -0.11,3.05 -1.57,0.03 -3.14,0.05 -4.71,0.04 -0.01,-1.12 -0.02,-2.24 -0.05,-3.36 z"
         inkscape:connector-curvature="0"
         style="fill:#fcfcfc" />
      <path
         id="path4162"
         d="m 5.35,52.75 c 0.77,-1.64 1.53,-3.28 2.22,-4.95 0.5,1.64 1.06,3.26 1.66,4.87 -1.29,0.04 -2.59,0.07 -3.88,0.08 z"
         inkscape:connector-curvature="0"
         style="fill:#fcfcfc" />
    </g>
  </g>
</svg>
