<?xml version="1.0" encoding="UTF-8" standalone="no"?>
<!-- Created with Inkscape (http://www.inkscape.org/) -->

<svg
   xmlns:dc="http://purl.org/dc/elements/1.1/"
   xmlns:cc="http://creativecommons.org/ns#"
   xmlns:rdf="http://www.w3.org/1999/02/22-rdf-syntax-ns#"
   xmlns:svg="http://www.w3.org/2000/svg"
   xmlns="http://www.w3.org/2000/svg"
   xmlns:sodipodi="http://sodipodi.sourceforge.net/DTD/sodipodi-0.dtd"
   xmlns:inkscape="http://www.inkscape.org/namespaces/inkscape"
   width="128"
   height="128"
   viewBox="0 0 128 128"
   id="svg2"
   version="1.1"
   inkscape:version="0.91 r13725"
   sodipodi:docname="drawing.svg">
  <defs
     id="defs4" />
  <sodipodi:namedview
     id="base"
     pagecolor="#ffffff"
     bordercolor="#666666"
     borderopacity="1.0"
     inkscape:pageopacity="0.0"
     inkscape:pageshadow="2"
     inkscape:zoom="1.4"
     inkscape:cx="-53.345393"
     inkscape:cy="223.37137"
     inkscape:document-units="px"
     inkscape:current-layer="layer1"
     showgrid="false"
     units="px"
     inkscape:window-width="1920"
     inkscape:window-height="1017"
     inkscape:window-x="-8"
     inkscape:window-y="-8"
     inkscape:window-maximized="1" />
  <metadata
     id="metadata7">
    <rdf:RDF>
      <cc:Work
         rdf:about="">
        <dc:format>image/svg+xml</dc:format>
        <dc:type
           rdf:resource="http://purl.org/dc/dcmitype/StillImage" />
        <dc:title></dc:title>
      </cc:Work>
    </rdf:RDF>
  </metadata>
  <g
     inkscape:label="Capa 1"
     inkscape:groupmode="layer"
     id="layer1"
     transform="translate(0,-924.36216)">
    <g
       id="g4150"
       transform="matrix(0.24553572,0,0,0.23018973,0.71428259,930.21934)">
      <path
         id="path4138"
         d="M 0,0 512,0 512,512 0,512 0,0 Z"
         inkscape:connector-curvature="0"
         style="fill:#fffefe" />
      <path
         id="path4140"
         d="m 409.19,10.13 c 9.61,-1.18 19.54,4.06 24.1,12.58 2.37,4.1 2.87,8.87 3.7,13.44 21.86,123.96 43.71,247.93 65.58,371.9 1.85,9.01 -1.9,18.82 -9.28,24.3 -3.45,2.68 -7.65,4.19 -11.94,4.85 -122.09,21.51 -244.18,43.05 -366.27,64.57 -6.33,0.87 -12.68,3.07 -19.11,1.88 C 85.82,502.02 77.39,493.37 75.96,483.2 53.75,357.23 31.52,231.25 9.33,105.28 6.74,92.18 16.79,78.54 29.99,76.93 156.39,54.68 282.77,32.26 409.19,10.13 Z"
         inkscape:connector-curvature="0"
         style="fill:#d22c23" />
      <path
         id="path4142"
         d="m 185.5,141.69 c 2.99,-0.36 6.97,-1.13 8.84,1.95 3.73,6.49 5.33,13.93 8.23,20.8 6.47,16.56 17.3,31.85 32.5,41.43 11.21,7.15 24.6,11.17 37.94,10.32 11,-0.57 22.51,-2.1 32.02,-8.06 6.18,-3.77 10.31,-10.8 9.84,-18.12 -0.58,-8.92 -4.57,-17.19 -5.98,-25.95 1.11,-4.85 7.02,-5.74 11.12,-6.76 18.53,-2.84 36.96,-6.32 55.42,-9.56 8.38,-1.35 16.91,-3.54 25.43,-2.22 3.94,0.51 7.27,3.53 8.08,7.44 2.79,11.68 3.85,24.33 -0.33,35.82 -3.34,9.33 -10.53,16.88 -18.97,21.86 -12.26,7.38 -26.44,10.25 -40,14.25 -3.23,1.11 -6.77,2.1 -9.18,4.66 -1.77,1.79 -1.03,4.72 0.84,6.12 5.35,4.49 12.07,6.84 18.3,9.82 23.44,10.23 47.35,20.91 66.5,38.3 14.62,13 25.63,30.67 28.39,50.24 0.35,2.28 0.21,5.13 -1.94,6.51 -2.48,1.54 -5.42,2.02 -8.22,2.62 -27.02,4.82 -54.07,9.51 -81.07,14.46 -4.69,0.76 -9.45,2.04 -14.23,1.39 -3.06,-0.46 -5.33,-2.89 -6.56,-5.59 -2.03,-4.46 -3.15,-9.26 -4.84,-13.85 -7.42,-21.12 -23.58,-38.74 -43.63,-48.55 -20.62,-10.07 -44.72,-14.67 -67.28,-9.23 -14.13,3.22 -26.87,12.99 -32.23,26.64 -4.92,10.83 -4.24,22.9 -5.82,34.41 -0.8,5.52 -7.16,6.6 -11.63,7.64 -23.43,4.49 -46.99,8.32 -70.42,12.77 -4.1,0.34 -9.24,1.89 -12.61,-1.21 -3.02,-12.66 -1.18,-26.5 5.02,-37.96 8.17,-15.09 22.42,-25.69 37.11,-33.92 16.74,-9.45 35.01,-15.65 52.45,-23.6 3.48,-1.9 7.89,-3.57 9.37,-7.58 0,-3.37 -3.03,-5.6 -5.58,-7.25 -7.33,-4.3 -15.51,-6.8 -23.4,-9.83 -19.12,-7 -38.48,-14.56 -54.6,-27.3 -13.61,-10.51 -24.1,-25.37 -28.01,-42.24 -0.73,-3.36 -2.33,-7.54 0.56,-10.34 4.47,-4 10.75,-4.71 16.37,-5.98 27.42,-4.66 54.73,-10.01 82.2,-14.35 z"
         inkscape:connector-curvature="0"
         style="fill:#fffefe" />
    </g>
  </g>
</svg>
