<?xml version="1.0" encoding="UTF-8"?>
<!DOCTYPE svg PUBLIC "-//W3C//DTD SVG 1.1//EN" "http://www.w3.org/Graphics/SVG/1.1/DTD/svg11.dtd">
<svg width="123pt" height="82pt" viewBox="0 0 123 82" version="1.1" xmlns="http://www.w3.org/2000/svg">
<path fill="#ffffff" d=" M 0.00 0.00 L 123.00 0.00 L 123.00 82.00 L 25.97 82.00 C 26.63 80.54 27.22 79.05 27.81 77.56 C 29.91 77.40 32.01 76.86 33.45 75.21 C 33.69 74.94 34.17 74.40 34.41 74.12 C 34.83 75.47 35.02 76.86 35.47 78.20 C 36.42 77.98 37.37 77.76 38.31 77.52 C 38.44 74.90 38.42 72.28 38.44 69.66 C 40.11 68.98 43.14 69.31 42.80 66.76 C 41.58 65.77 40.53 64.27 38.89 64.00 C 36.11 63.41 34.85 66.58 33.18 68.18 C 32.63 67.83 31.52 67.12 30.96 66.76 C 28.86 66.72 26.77 66.68 24.67 66.64 C 24.86 71.76 23.83 77.08 25.81 81.99 L 24.88 82.00 L 0.00 82.00 L 0.00 0.00 Z"/>
<path fill="#626772" d=" M 60.94 2.92 C 61.93 1.58 63.58 2.74 64.65 3.30 C 71.36 7.43 78.35 11.07 85.04 15.23 C 85.36 15.45 86.01 15.90 86.34 16.12 C 84.08 19.21 81.50 22.03 79.07 24.97 C 77.33 23.83 75.62 22.67 73.88 21.55 C 72.90 21.01 71.90 20.53 70.88 20.09 L 70.47 19.93 C 69.98 19.44 69.01 18.48 68.52 18.00 C 66.50 16.96 65.36 19.19 64.69 20.67 C 63.75 21.33 63.01 22.15 62.46 23.13 C 62.17 23.64 61.87 24.16 61.58 24.68 C 61.19 25.17 60.43 26.14 60.04 26.63 C 55.34 24.25 51.00 21.19 46.19 19.05 C 48.50 18.28 49.76 16.05 51.29 14.31 C 54.47 10.49 57.63 6.64 60.94 2.92 Z"/>
<path fill="#cbced6" d=" M 93.74 8.68 C 95.18 7.27 96.82 9.30 98.23 9.84 C 104.99 14.25 112.53 17.39 119.07 22.12 C 116.62 25.42 113.80 28.44 111.54 31.88 C 105.64 28.27 99.50 25.07 93.58 21.50 C 92.22 20.78 90.23 19.35 88.98 21.05 C 85.29 24.94 82.08 29.26 78.52 33.27 C 77.16 32.23 75.80 31.19 74.45 30.14 C 75.77 28.58 77.06 26.99 78.32 25.38 C 76.60 24.38 74.87 23.38 73.15 22.39 L 73.88 21.55 C 75.62 22.67 77.33 23.83 79.07 24.97 C 81.50 22.03 84.08 19.21 86.34 16.12 C 86.01 15.90 85.36 15.45 85.04 15.23 C 85.91 15.42 86.79 15.61 87.67 15.81 C 89.73 13.47 91.51 10.87 93.74 8.68 Z"/>
<path fill="#868a91" d=" M 64.69 20.67 C 65.36 19.19 66.50 16.96 68.52 18.00 C 69.01 18.48 69.98 19.44 70.47 19.93 L 70.59 20.36 L 70.92 20.45 L 70.88 20.09 C 71.90 20.53 72.90 21.01 73.88 21.55 L 73.15 22.39 C 74.87 23.38 76.60 24.38 78.32 25.38 C 77.06 26.99 75.77 28.58 74.45 30.14 C 75.80 31.19 77.16 32.23 78.52 33.27 C 76.96 34.86 75.23 36.26 73.47 37.63 C 73.47 38.87 73.49 40.12 73.52 41.37 C 73.55 41.81 73.60 42.71 73.62 43.16 C 76.92 44.91 80.21 46.70 83.23 48.91 C 82.97 49.31 82.44 50.11 82.18 50.50 C 80.58 52.18 79.40 54.71 77.19 55.52 C 68.06 50.33 59.08 44.85 49.83 39.87 C 53.24 34.43 58.52 30.36 61.58 24.68 C 61.87 24.16 62.17 23.64 62.46 23.13 C 64.09 24.89 65.37 22.14 64.69 20.67 Z"/>
<path fill="#c9cdd8" d=" M 66.36 19.30 C 66.82 19.75 66.82 19.75 66.36 19.30 Z"/>
<path fill="#c4c8d1" d=" M 70.47 19.93 L 70.88 20.09 L 70.92 20.45 L 70.59 20.36 L 70.47 19.93 Z"/>
<path fill="#508d4c" d=" M 88.98 21.05 C 90.23 19.35 92.22 20.78 93.58 21.50 C 99.50 25.07 105.64 28.27 111.54 31.88 C 113.44 32.99 115.35 34.08 117.25 35.18 C 117.49 35.04 117.97 34.75 118.20 34.60 C 118.32 36.51 120.21 37.14 121.61 37.99 C 120.98 38.32 119.74 38.97 119.12 39.30 C 119.13 36.56 116.33 35.71 114.41 34.53 C 106.32 30.39 98.33 26.04 90.71 21.10 C 87.08 24.63 84.00 28.66 80.77 32.55 C 78.67 35.74 76.45 38.86 73.52 41.37 C 73.49 40.12 73.47 38.87 73.47 37.63 C 75.23 36.26 76.96 34.86 78.52 33.27 C 82.08 29.26 85.29 24.94 88.98 21.05 Z"/>
<path fill="#a9aeb7" d=" M 62.46 23.13 C 63.01 22.15 63.75 21.33 64.69 20.67 C 65.37 22.14 64.09 24.89 62.46 23.13 Z"/>
<path fill="#e9ffe8" d=" M 80.77 32.55 C 84.00 28.66 87.08 24.63 90.71 21.10 C 98.33 26.04 106.32 30.39 114.41 34.53 C 116.33 35.71 119.13 36.56 119.12 39.30 C 118.75 39.13 118.02 38.78 117.65 38.61 C 108.25 33.77 99.52 27.66 89.92 23.20 C 86.29 28.06 82.29 32.63 78.16 37.06 C 78.78 37.41 80.01 38.10 80.63 38.45 C 79.01 38.85 76.95 38.45 76.07 40.26 C 75.45 40.99 74.84 41.72 74.24 42.45 C 82.62 48.13 91.88 52.34 100.37 57.86 C 97.64 58.92 95.70 55.99 93.06 55.98 C 89.31 55.56 84.35 55.21 83.45 50.65 C 83.14 50.61 82.50 50.54 82.18 50.50 C 82.44 50.11 82.97 49.31 83.23 48.91 C 80.21 46.70 76.92 44.91 73.62 43.16 C 73.60 42.71 73.55 41.81 73.52 41.37 C 76.45 38.86 78.67 35.74 80.77 32.55 Z"/>
<path fill="#61bc57" d=" M 78.16 37.06 C 82.29 32.63 86.29 28.06 89.92 23.20 C 99.52 27.66 108.25 33.77 117.65 38.61 C 113.71 45.25 107.89 50.39 103.02 56.30 C 94.14 50.77 84.49 46.49 76.07 40.26 C 76.95 38.45 79.01 38.85 80.63 38.45 C 80.01 38.10 78.78 37.41 78.16 37.06 Z"/>
<path fill="#508d4c" d=" M 117.65 38.61 C 118.02 38.78 118.75 39.13 119.12 39.30 L 119.87 39.99 C 114.24 46.50 108.88 53.21 103.22 59.69 C 102.28 59.06 101.34 58.43 100.37 57.86 C 91.88 52.34 82.62 48.13 74.24 42.45 C 74.84 41.72 75.45 40.99 76.07 40.26 C 84.49 46.49 94.14 50.77 103.02 56.30 C 107.89 50.39 113.71 45.25 117.65 38.61 Z"/>
<path fill="#fcfcfc" d=" M 17.65 46.26 C 19.28 46.04 20.92 46.14 22.52 46.53 C 22.48 47.55 22.45 48.56 22.41 49.58 C 20.84 49.61 19.27 49.63 17.70 49.62 C 17.69 48.50 17.68 47.38 17.65 46.26 Z"/>
<path fill="#fcfcfc" d=" M 5.35 52.75 C 6.12 51.11 6.88 49.47 7.57 47.80 C 8.07 49.44 8.63 51.06 9.23 52.67 C 7.94 52.71 6.64 52.74 5.35 52.75 Z"/>
</svg>