<?xml version="1.0" encoding="UTF-8"?>
<!DOCTYPE svg PUBLIC "-//W3C//DTD SVG 1.1//EN" "http://www.w3.org/Graphics/SVG/1.1/DTD/svg11.dtd">
<svg width="512pt" height="512pt" viewBox="0 0 512 512" version="1.1" xmlns="http://www.w3.org/2000/svg">
<path fill="#fffefe" d=" M 0.00 0.00 L 512.00 0.00 L 512.00 512.00 L 0.00 512.00 L 0.00 0.00 Z"/>
<path fill="#d22c23" d=" M 409.19 10.13 C 418.80 8.95 428.73 14.19 433.29 22.71 C 435.66 26.81 436.16 31.58 436.99 36.15 C 458.85 160.11 480.70 284.08 502.57 408.05 C 504.42 417.06 500.67 426.87 493.29 432.35 C 489.84 435.03 485.64 436.54 481.35 437.20 C 359.26 458.71 237.17 480.25 115.08 501.77 C 108.75 502.64 102.40 504.84 95.97 503.65 C 85.82 502.02 77.39 493.37 75.96 483.20 C 53.75 357.23 31.52 231.25 9.33 105.28 C 6.74 92.18 16.79 78.54 29.99 76.93 C 156.39 54.68 282.77 32.26 409.19 10.13 Z"/>
<path fill="#fffefe" d=" M 185.50 141.69 C 188.49 141.33 192.47 140.56 194.34 143.64 C 198.07 150.13 199.67 157.57 202.57 164.44 C 209.04 181.00 219.87 196.29 235.07 205.87 C 246.28 213.02 259.67 217.04 273.01 216.19 C 284.01 215.62 295.52 214.09 305.03 208.13 C 311.21 204.36 315.34 197.33 314.87 190.01 C 314.29 181.09 310.30 172.82 308.89 164.06 C 310.00 159.21 315.91 158.32 320.01 157.30 C 338.54 154.46 356.97 150.98 375.43 147.74 C 383.81 146.39 392.34 144.20 400.86 145.52 C 404.80 146.03 408.13 149.05 408.94 152.96 C 411.73 164.64 412.79 177.29 408.61 188.78 C 405.27 198.11 398.08 205.66 389.64 210.64 C 377.38 218.02 363.20 220.89 349.64 224.89 C 346.41 226.00 342.87 226.99 340.46 229.55 C 338.69 231.34 339.43 234.27 341.30 235.67 C 346.65 240.16 353.37 242.51 359.60 245.49 C 383.04 255.72 406.95 266.40 426.10 283.79 C 440.72 296.79 451.73 314.46 454.49 334.03 C 454.84 336.31 454.70 339.16 452.55 340.54 C 450.07 342.08 447.13 342.56 444.33 343.16 C 417.31 347.98 390.26 352.67 363.26 357.62 C 358.57 358.38 353.81 359.66 349.03 359.01 C 345.97 358.55 343.70 356.12 342.47 353.42 C 340.44 348.96 339.32 344.16 337.63 339.57 C 330.21 318.45 314.05 300.83 294.00 291.02 C 273.38 280.95 249.28 276.35 226.72 281.79 C 212.59 285.01 199.85 294.78 194.49 308.43 C 189.57 319.26 190.25 331.33 188.67 342.84 C 187.87 348.36 181.51 349.44 177.04 350.48 C 153.61 354.97 130.05 358.80 106.62 363.25 C 102.52 363.59 97.38 365.14 94.01 362.04 C 90.99 349.38 92.83 335.54 99.03 324.08 C 107.20 308.99 121.45 298.39 136.14 290.16 C 152.88 280.71 171.15 274.51 188.59 266.56 C 192.07 264.66 196.48 262.99 197.96 258.98 C 197.96 255.61 194.93 253.38 192.38 251.73 C 185.05 247.43 176.87 244.93 168.98 241.90 C 149.86 234.90 130.50 227.34 114.38 214.60 C 100.77 204.09 90.28 189.23 86.37 172.36 C 85.64 169.00 84.04 164.82 86.93 162.02 C 91.40 158.02 97.68 157.31 103.30 156.04 C 130.72 151.38 158.03 146.03 185.50 141.69 Z"/>
</svg>